<?xml version="1.0" encoding="UTF-8" standalone="no"?>
<!DOCTYPE svg PUBLIC "-//W3C//DTD SVG 1.1//EN"
 "http://www.w3.org/Graphics/SVG/1.1/DTD/svg11.dtd">
<!-- Generated by graphviz version 2.36.0 (20140111.2315)
 -->
<!-- Title: G Pages: 1 -->
<svg width="584pt" height="1428pt"
 viewBox="0.00 0.00 584.00 1428.00" xmlns="http://www.w3.org/2000/svg" xmlns:xlink="http://www.w3.org/1999/xlink">
<g id="graph0" class="graph" transform="scale(1 1) rotate(0) translate(4 1424)">
<title>G</title>
<polygon fill="white" stroke="none" points="-4,4 -4,-1424 580,-1424 580,4 -4,4"/>
<g id="clust1" class="cluster"><title>cluster_Global</title>
<path fill="none" stroke="gray" d="M20,-44C20,-44 556,-44 556,-44 562,-44 568,-50 568,-56 568,-56 568,-1400 568,-1400 568,-1406 562,-1412 556,-1412 556,-1412 20,-1412 20,-1412 14,-1412 8,-1406 8,-1400 8,-1400 8,-56 8,-56 8,-50 14,-44 20,-44"/>
<text text-anchor="middle" x="288" y="-1399.2" font-family="Times,serif" font-size="11.00" fill="gray">Global</text>
</g>
<!-- \\RequestCore -->
<g id="node1" class="node"><title>\\RequestCore</title>
<polygon fill="none" stroke="black" points="465.5,-1384 374.5,-1384 374.5,-1348 465.5,-1348 465.5,-1384"/>
<text text-anchor="middle" x="420" y="-1363.2" font-family="Courier,monospace" font-size="11.00">RequestCore</text>
</g>
<!-- \\ResponseCore -->
<g id="node2" class="node"><title>\\ResponseCore</title>
<polygon fill="none" stroke="black" points="469,-1330 371,-1330 371,-1294 469,-1294 469,-1330"/>
<text text-anchor="middle" x="420" y="-1309.2" font-family="Courier,monospace" font-size="11.00">ResponseCore</text>
</g>
<!-- \\RequestCore_Exception -->
<g id="node3" class="node"><title>\\RequestCore_Exception</title>
<polygon fill="none" stroke="black" points="499,-88 341,-88 341,-52 499,-52 499,-88"/>
<text text-anchor="middle" x="420" y="-67.2" font-family="Courier,monospace" font-size="11.00">RequestCore_Exception</text>
</g>
<!-- \\Exception -->
<g id="node28" class="node"><title>\\Exception</title>
<ellipse fill="none" stroke="black" cx="112" cy="-18" rx="48.9926" ry="18"/>
<text text-anchor="middle" x="112" y="-14.3" font-family="Times,serif" font-size="14.00" fill="gray">\Exception</text>
</g>
<!-- \\RequestCore_Exception&#45;&gt;\\Exception -->
<g id="edge1" class="edge"><title>\\RequestCore_Exception&#45;&gt;\\Exception</title>
<path fill="none" stroke="black" d="M340.992,-56.7437C286.439,-47.4732 214.987,-35.3311 166.726,-27.1299"/>
<polygon fill="none" stroke="black" points="167.239,-23.667 156.794,-25.4421 166.066,-30.5681 167.239,-23.667"/>
</g>
<!-- \\Aliyun_Sls_Exception -->
<g id="node4" class="node"><title>\\Aliyun_Sls_Exception</title>
<polygon fill="none" stroke="black" points="496,-142 344,-142 344,-106 496,-106 496,-142"/>
<text text-anchor="middle" x="420" y="-121.2" font-family="Courier,monospace" font-size="11.00">Aliyun_Sls_Exception</text>
</g>
<!-- \\Aliyun_Sls_Exception&#45;&gt;\\Exception -->
<g id="edge2" class="edge"><title>\\Aliyun_Sls_Exception&#45;&gt;\\Exception</title>
<path fill="none" stroke="black" d="M343.739,-116.116C322.481,-112.114 299.769,-106.084 280,-97 242.914,-79.9581 244.776,-57.7013 208,-40 195.601,-34.032 181.499,-29.6359 168.024,-26.4152"/>
<polygon fill="none" stroke="black" points="168.401,-22.9141 157.882,-24.1748 166.891,-29.7494 168.401,-22.9141"/>
</g>
<!-- \\ProtobufEnum -->
<g id="node5" class="node"><title>\\ProtobufEnum</title>
<polygon fill="none" stroke="black" points="469,-1168 371,-1168 371,-1132 469,-1132 469,-1168"/>
<text text-anchor="middle" x="420" y="-1147.2" font-family="Courier,monospace" font-size="11.00">ProtobufEnum</text>
</g>
<!-- \\ProtobufMessage -->
<g id="node6" class="node"><title>\\ProtobufMessage</title>
<polygon fill="none" stroke="black" points="479,-1114 361,-1114 361,-1078 479,-1078 479,-1114"/>
<text text-anchor="middle" x="420" y="-1093.2" font-family="Courier,monospace" font-size="11.00">ProtobufMessage</text>
</g>
<!-- \\Protobuf -->
<g id="node7" class="node"><title>\\Protobuf</title>
<polygon fill="none" stroke="black" points="455.5,-1060 384.5,-1060 384.5,-1024 455.5,-1024 455.5,-1060"/>
<text text-anchor="middle" x="420" y="-1039.2" font-family="Courier,monospace" font-size="11.00">Protobuf</text>
</g>
<!-- \\Aliyun_Sls_Util -->
<g id="node8" class="node"><title>\\Aliyun_Sls_Util</title>
<polygon fill="none" stroke="black" points="479,-1006 361,-1006 361,-970 479,-970 479,-1006"/>
<text text-anchor="middle" x="420" y="-985.2" font-family="Courier,monospace" font-size="11.00">Aliyun_Sls_Util</text>
</g>
<!-- \\Log_Content -->
<g id="node9" class="node"><title>\\Log_Content</title>
<polygon fill="none" stroke="black" points="465.5,-952 374.5,-952 374.5,-916 465.5,-916 465.5,-952"/>
<text text-anchor="middle" x="420" y="-931.2" font-family="Courier,monospace" font-size="11.00">Log_Content</text>
</g>
<!-- \\Log -->
<g id="node10" class="node"><title>\\Log</title>
<polygon fill="none" stroke="black" points="447,-898 393,-898 393,-862 447,-862 447,-898"/>
<text text-anchor="middle" x="420" y="-877.2" font-family="Courier,monospace" font-size="11.00">Log</text>
</g>
<!-- \\LogGroup -->
<g id="node11" class="node"><title>\\LogGroup</title>
<polygon fill="none" stroke="black" points="455.5,-844 384.5,-844 384.5,-808 455.5,-808 455.5,-844"/>
<text text-anchor="middle" x="420" y="-823.2" font-family="Courier,monospace" font-size="11.00">LogGroup</text>
</g>
<!-- \\Aliyun_Sls_Client -->
<g id="node12" class="node"><title>\\Aliyun_Sls_Client</title>
<polygon fill="none" stroke="black" points="485.5,-790 354.5,-790 354.5,-754 485.5,-754 485.5,-790"/>
<text text-anchor="middle" x="420" y="-769.2" font-family="Courier,monospace" font-size="11.00">Aliyun_Sls_Client</text>
</g>
<!-- \\Aliyun_Sls_Models_GetLogsRequest -->
<g id="node13" class="node"><title>\\Aliyun_Sls_Models_GetLogsRequest</title>
<polygon fill="none" stroke="black" points="536.5,-1276 303.5,-1276 303.5,-1240 536.5,-1240 536.5,-1276"/>
<text text-anchor="middle" x="420" y="-1255.2" font-family="Courier,monospace" font-size="11.00">Aliyun_Sls_Models_GetLogsRequest</text>
</g>
<!-- \\Aliyun_Sls_Models_Request -->
<g id="node25" class="node"><title>\\Aliyun_Sls_Models_Request</title>
<polygon fill="none" stroke="black" points="204.5,-736 19.5,-736 19.5,-700 204.5,-700 204.5,-736"/>
<text text-anchor="middle" x="112" y="-715.2" font-family="Courier,monospace" font-size="11.00">Aliyun_Sls_Models_Request</text>
</g>
<!-- \\Aliyun_Sls_Models_GetLogsRequest&#45;&gt;\\Aliyun_Sls_Models_Request -->
<g id="edge3" class="edge"><title>\\Aliyun_Sls_Models_GetLogsRequest&#45;&gt;\\Aliyun_Sls_Models_Request</title>
<path fill="none" stroke="black" d="M303.168,-1245.91C294.772,-1242 286.906,-1237.11 280,-1231 131.115,-1099.37 114.308,-833.539 112.917,-746.382"/>
<polygon fill="none" stroke="black" points="116.415,-746.168 112.814,-736.204 109.415,-746.239 116.415,-746.168"/>
</g>
<!-- \\Aliyun_Sls_Models_PutLogsRequest -->
<g id="node14" class="node"><title>\\Aliyun_Sls_Models_PutLogsRequest</title>
<polygon fill="none" stroke="black" points="536.5,-1222 303.5,-1222 303.5,-1186 536.5,-1186 536.5,-1222"/>
<text text-anchor="middle" x="420" y="-1201.2" font-family="Courier,monospace" font-size="11.00">Aliyun_Sls_Models_PutLogsRequest</text>
</g>
<!-- \\Aliyun_Sls_Models_PutLogsRequest&#45;&gt;\\Aliyun_Sls_Models_Request -->
<g id="edge4" class="edge"><title>\\Aliyun_Sls_Models_PutLogsRequest&#45;&gt;\\Aliyun_Sls_Models_Request</title>
<path fill="none" stroke="black" d="M303.394,-1191.65C294.949,-1187.8 287.01,-1182.99 280,-1177 145.13,-1061.81 119.167,-828.443 114.181,-746.904"/>
<polygon fill="none" stroke="black" points="117.649,-746.228 113.608,-736.435 110.66,-746.611 117.649,-746.228"/>
</g>
<!-- \\Aliyun_Sls_Models_GetHistogramsRequest -->
<g id="node15" class="node"><title>\\Aliyun_Sls_Models_GetHistogramsRequest</title>
<polygon fill="none" stroke="black" points="556.5,-736 283.5,-736 283.5,-700 556.5,-700 556.5,-736"/>
<text text-anchor="middle" x="420" y="-715.2" font-family="Courier,monospace" font-size="11.00">Aliyun_Sls_Models_GetHistogramsRequest</text>
</g>
<!-- \\Aliyun_Sls_Models_GetHistogramsRequest&#45;&gt;\\Aliyun_Sls_Models_Request -->
<g id="edge5" class="edge"><title>\\Aliyun_Sls_Models_GetHistogramsRequest&#45;&gt;\\Aliyun_Sls_Models_Request</title>
<path fill="none" stroke="black" d="M283.448,-718C260.296,-718 236.605,-718 214.532,-718"/>
<polygon fill="none" stroke="black" points="214.511,-714.5 204.511,-718 214.511,-721.5 214.511,-714.5"/>
</g>
<!-- \\Aliyun_Sls_Models_Histogram -->
<g id="node16" class="node"><title>\\Aliyun_Sls_Models_Histogram</title>
<polygon fill="none" stroke="black" points="519.5,-574 320.5,-574 320.5,-538 519.5,-538 519.5,-574"/>
<text text-anchor="middle" x="420" y="-553.2" font-family="Courier,monospace" font-size="11.00">Aliyun_Sls_Models_Histogram</text>
</g>
<!-- \\Aliyun_Sls_Models_QueriedLog -->
<g id="node17" class="node"><title>\\Aliyun_Sls_Models_QueriedLog</title>
<polygon fill="none" stroke="black" points="523,-520 317,-520 317,-484 523,-484 523,-520"/>
<text text-anchor="middle" x="420" y="-499.2" font-family="Courier,monospace" font-size="11.00">Aliyun_Sls_Models_QueriedLog</text>
</g>
<!-- \\Aliyun_Sls_Models_ListTopicsRequest -->
<g id="node18" class="node"><title>\\Aliyun_Sls_Models_ListTopicsRequest</title>
<polygon fill="none" stroke="black" points="546.5,-682 293.5,-682 293.5,-646 546.5,-646 546.5,-682"/>
<text text-anchor="middle" x="420" y="-661.2" font-family="Courier,monospace" font-size="11.00">Aliyun_Sls_Models_ListTopicsRequest</text>
</g>
<!-- \\Aliyun_Sls_Models_ListTopicsRequest&#45;&gt;\\Aliyun_Sls_Models_Request -->
<g id="edge6" class="edge"><title>\\Aliyun_Sls_Models_ListTopicsRequest&#45;&gt;\\Aliyun_Sls_Models_Request</title>
<path fill="none" stroke="black" d="M316.681,-682.056C283.852,-687.85 247.513,-694.262 214.726,-700.048"/>
<polygon fill="none" stroke="black" points="213.912,-696.638 204.673,-701.822 215.129,-703.531 213.912,-696.638"/>
</g>
<!-- \\Aliyun_Sls_Models_GetHistogramsResponse -->
<g id="node19" class="node"><title>\\Aliyun_Sls_Models_GetHistogramsResponse</title>
<polygon fill="none" stroke="black" points="560,-196 280,-196 280,-160 560,-160 560,-196"/>
<text text-anchor="middle" x="420" y="-175.2" font-family="Courier,monospace" font-size="11.00">Aliyun_Sls_Models_GetHistogramsResponse</text>
</g>
<!-- \\Aliyun_Sls_Models_Response -->
<g id="node26" class="node"><title>\\Aliyun_Sls_Models_Response</title>
<polygon fill="none" stroke="black" points="208,-358 16,-358 16,-322 208,-322 208,-358"/>
<text text-anchor="middle" x="112" y="-337.2" font-family="Courier,monospace" font-size="11.00">Aliyun_Sls_Models_Response</text>
</g>
<!-- \\Aliyun_Sls_Models_GetHistogramsResponse&#45;&gt;\\Aliyun_Sls_Models_Response -->
<g id="edge7" class="edge"><title>\\Aliyun_Sls_Models_GetHistogramsResponse&#45;&gt;\\Aliyun_Sls_Models_Response</title>
<path fill="none" stroke="black" d="M302.713,-196.092C294.886,-198.675 287.243,-201.627 280,-205 222.05,-231.988 166.808,-283.388 136.645,-314.39"/>
<polygon fill="none" stroke="black" points="133.928,-312.167 129.53,-321.805 138.979,-317.013 133.928,-312.167"/>
</g>
<!-- \\Aliyun_Sls_Models_ListLogstoresResponse -->
<g id="node20" class="node"><title>\\Aliyun_Sls_Models_ListLogstoresResponse</title>
<polygon fill="none" stroke="black" points="560,-466 280,-466 280,-430 560,-430 560,-466"/>
<text text-anchor="middle" x="420" y="-445.2" font-family="Courier,monospace" font-size="11.00">Aliyun_Sls_Models_ListLogstoresResponse</text>
</g>
<!-- \\Aliyun_Sls_Models_ListLogstoresResponse&#45;&gt;\\Aliyun_Sls_Models_Response -->
<g id="edge8" class="edge"><title>\\Aliyun_Sls_Models_ListLogstoresResponse&#45;&gt;\\Aliyun_Sls_Models_Response</title>
<path fill="none" stroke="black" d="M311.275,-429.971C300.609,-427.324 290.028,-424.343 280,-421 234.732,-405.912 185.958,-381.178 152.879,-363.004"/>
<polygon fill="none" stroke="black" points="154.424,-359.859 143.982,-358.066 151.027,-365.979 154.424,-359.859"/>
</g>
<!-- \\Aliyun_Sls_Models_LogItem -->
<g id="node21" class="node"><title>\\Aliyun_Sls_Models_LogItem</title>
<polygon fill="none" stroke="black" points="512.5,-304 327.5,-304 327.5,-268 512.5,-268 512.5,-304"/>
<text text-anchor="middle" x="420" y="-283.2" font-family="Courier,monospace" font-size="11.00">Aliyun_Sls_Models_LogItem</text>
</g>
<!-- \\Aliyun_Sls_Models_ListTopicsResponse -->
<g id="node22" class="node"><title>\\Aliyun_Sls_Models_ListTopicsResponse</title>
<polygon fill="none" stroke="black" points="550,-358 290,-358 290,-322 550,-322 550,-358"/>
<text text-anchor="middle" x="420" y="-337.2" font-family="Courier,monospace" font-size="11.00">Aliyun_Sls_Models_ListTopicsResponse</text>
</g>
<!-- \\Aliyun_Sls_Models_ListTopicsResponse&#45;&gt;\\Aliyun_Sls_Models_Response -->
<g id="edge9" class="edge"><title>\\Aliyun_Sls_Models_ListTopicsResponse&#45;&gt;\\Aliyun_Sls_Models_Response</title>
<path fill="none" stroke="black" d="M289.672,-340C265.943,-340 241.436,-340 218.509,-340"/>
<polygon fill="none" stroke="black" points="218.441,-336.5 208.441,-340 218.441,-343.5 218.441,-336.5"/>
</g>
<!-- \\Aliyun_Sls_Models_ListLogstoresRequest -->
<g id="node23" class="node"><title>\\Aliyun_Sls_Models_ListLogstoresRequest</title>
<polygon fill="none" stroke="black" points="556.5,-628 283.5,-628 283.5,-592 556.5,-592 556.5,-628"/>
<text text-anchor="middle" x="420" y="-607.2" font-family="Courier,monospace" font-size="11.00">Aliyun_Sls_Models_ListLogstoresRequest</text>
</g>
<!-- \\Aliyun_Sls_Models_ListLogstoresRequest&#45;&gt;\\Aliyun_Sls_Models_Request -->
<g id="edge10" class="edge"><title>\\Aliyun_Sls_Models_ListLogstoresRequest&#45;&gt;\\Aliyun_Sls_Models_Request</title>
<path fill="none" stroke="black" d="M311.275,-628.029C300.609,-630.676 290.028,-633.657 280,-637 234.732,-652.088 185.958,-676.822 152.879,-694.996"/>
<polygon fill="none" stroke="black" points="151.027,-692.021 143.982,-699.934 154.424,-698.141 151.027,-692.021"/>
</g>
<!-- \\Aliyun_Sls_Models_PutLogsResponse -->
<g id="node24" class="node"><title>\\Aliyun_Sls_Models_PutLogsResponse</title>
<polygon fill="none" stroke="black" points="539.5,-250 300.5,-250 300.5,-214 539.5,-214 539.5,-250"/>
<text text-anchor="middle" x="420" y="-229.2" font-family="Courier,monospace" font-size="11.00">Aliyun_Sls_Models_PutLogsResponse</text>
</g>
<!-- \\Aliyun_Sls_Models_PutLogsResponse&#45;&gt;\\Aliyun_Sls_Models_Response -->
<g id="edge11" class="edge"><title>\\Aliyun_Sls_Models_PutLogsResponse&#45;&gt;\\Aliyun_Sls_Models_Response</title>
<path fill="none" stroke="black" d="M311.275,-250.029C300.609,-252.676 290.028,-255.657 280,-259 234.732,-274.088 185.958,-298.822 152.879,-316.996"/>
<polygon fill="none" stroke="black" points="151.027,-314.021 143.982,-321.934 154.424,-320.141 151.027,-314.021"/>
</g>
<!-- \\Aliyun_Sls_Models_GetLogsResponse -->
<g id="node27" class="node"><title>\\Aliyun_Sls_Models_GetLogsResponse</title>
<polygon fill="none" stroke="black" points="539.5,-412 300.5,-412 300.5,-376 539.5,-376 539.5,-412"/>
<text text-anchor="middle" x="420" y="-391.2" font-family="Courier,monospace" font-size="11.00">Aliyun_Sls_Models_GetLogsResponse</text>
</g>
<!-- \\Aliyun_Sls_Models_GetLogsResponse&#45;&gt;\\Aliyun_Sls_Models_Response -->
<g id="edge12" class="edge"><title>\\Aliyun_Sls_Models_GetLogsResponse&#45;&gt;\\Aliyun_Sls_Models_Response</title>
<path fill="none" stroke="black" d="M316.681,-375.944C285.091,-370.369 250.251,-364.221 218.453,-358.609"/>
<polygon fill="none" stroke="black" points="218.7,-355.099 208.244,-356.808 217.483,-361.992 218.7,-355.099"/>
</g>
</g>
</svg>
